<svg version="1.1" id="Layer_1" xmlns="http://www.w3.org/2000/svg" xmlns:xlink="http://www.w3.org/1999/xlink" x="0px" y="0px"
	 width="100%" viewBox="280 380 465 240" xml:space="preserve">
<defs>
    <linearGradient id="blueGradient" x1="0%" y1="0%" x2="100%" y2="0%">
      <stop offset="0%" style="stop-color:#00A3E0;stop-opacity:1" />
      <stop offset="100%" style="stop-color:#004B87;stop-opacity:1" />
    </linearGradient>
  </defs>
<path fill="url(#blueGradient)" opacity="1.000000" stroke="none" 
	d="
M425.198853,469.198975 
	C441.697052,452.680908 457.851868,436.318024 474.232971,420.184967 
	C483.642517,410.917908 495.894104,408.133881 508.438324,406.820892 
	C515.714783,406.059296 523.079712,406.577454 530.262207,408.395020 
	C540.482422,410.981293 549.205322,415.720795 556.671692,423.555786 
	C574.136719,441.883057 592.181213,459.658112 609.978699,477.669006 
	C610.183777,477.876495 610.223755,478.246979 610.559570,479.092010 
	C605.228943,479.538239 600.397034,477.644714 595.499207,476.930359 
	C581.383484,474.871368 567.309937,474.715179 553.241516,476.878571 
	C549.767395,477.412842 547.420349,476.790253 544.904724,474.129425 
	C535.863464,464.566223 526.462891,455.343719 517.299011,445.894653 
	C515.187317,443.717194 513.641479,443.115845 511.177704,445.564087 
	C484.231232,472.340149 457.197876,499.028778 430.198029,525.751099 
	C429.862396,526.083313 429.655426,526.545532 428.660309,528.041809 
	C432.190399,526.886597 434.741394,526.083679 437.271332,525.219116 
	C472.103119,513.316162 507.192352,502.294403 543.620605,496.352112 
	C567.385437,492.475494 591.268921,491.026764 615.081909,496.134674 
	C642.865906,502.094330 665.291443,516.872864 683.599731,538.294556 
	C697.149353,554.148315 709.127319,571.196533 721.399780,588.020386 
	C722.153076,589.053101 723.186279,590.047607 722.908508,591.583374 
	C721.660339,592.844299 720.081116,592.303162 718.665771,592.305237 
	C697.169678,592.337097 675.673462,592.292969 654.177490,592.354675 
	C651.356018,592.362793 649.240173,591.799988 647.258850,589.432495 
	C629.830505,568.607788 612.212830,547.941589 594.772156,527.127014 
	C592.815735,524.792114 590.767761,524.001160 587.872375,524.200500 
	C568.845032,525.510620 550.396606,529.754883 532.134216,534.995972 
	C486.521088,548.086426 443.497101,567.760010 400.295288,586.958435 
	C392.426971,590.455078 384.648529,592.659546 375.820618,592.464111 
	C353.835388,591.977478 331.832001,592.324036 309.835999,592.286987 
	C307.896881,592.283752 305.859192,592.761353 302.849976,591.014465 
	C343.737396,550.306702 384.343872,509.878632 425.198853,469.198975 
z"/>
</svg>